# xmcd
#
# Track frame offsets:
#	150
#	16682
#	28751
#	57012
#	79287
#	93466
#	106561
#	118567
#	135393
#	158658
#	184412
#	199680
#
# Disc length: 2870 seconds
#
# Revision: 1
# Processed by: cddbd v1.5.2PL0 Copyright (c) Steve Scherf et al.
# Submitted via: audiograbber 1.83.01
#
DISCID=8c0b340c
DTITLE=Split Whiskers - Down In The Swamp (UK)
DYEAR=2018
DGENRE=Blues
TTITLE0=Down In The Swamp
TTITLE1=I Ain't Got You
TTITLE2=Mellow Down Easy
TTITLE3=Ain't No Love In The Heart Of The City
TTITLE4=Days Of Old
TTITLE5=If You Can't Be Good Be Gone
TTITLE6=Split Whiskers Are Back In Town
TTITLE7=Rolling Down The Highway
TTITLE8=Money Ain't Everything
TTITLE9=Mean Ol'  Frisco
TTITLE10=Up All Night
TTITLE11=Little Did She Know
EXTD=
EXTT0=
EXTT1=
EXTT2=
EXTT3=
EXTT4=
EXTT5=
EXTT6=
EXTT7=
EXTT8=
EXTT9=
EXTT10=
EXTT11=
PLAYORDER=
